<mxfile host="Electron" modified="2023-10-02T04:37:37.090Z" agent="Mozilla/5.0 (Windows NT 10.0; Win64; x64) AppleWebKit/537.36 (KHTML, like Gecko) draw.io/21.6.1 Chrome/112.0.5615.204 Electron/24.6.1 Safari/537.36" etag="2ymyyB9MNeeTNP5R41Oi" version="21.6.1" type="device">
  <diagram name="Page-1" id="xxst82PdgDdYwWCrPRml">
    <mxGraphModel dx="993" dy="-342" grid="1" gridSize="10" guides="1" tooltips="1" connect="1" arrows="1" fold="1" page="1" pageScale="1" pageWidth="850" pageHeight="1100" math="0" shadow="0">
      <root>
        <mxCell id="0" />
        <mxCell id="1" parent="0" />
        <mxCell id="CKn5apcOZ88T2fr3DwMD-43" value="" style="ellipse;whiteSpace=wrap;html=1;" parent="1" vertex="1">
          <mxGeometry x="100" y="1320" width="510" height="80" as="geometry" />
        </mxCell>
        <mxCell id="CKn5apcOZ88T2fr3DwMD-41" value="&lt;font style=&quot;font-size: 18px;&quot;&gt;Analyze the human resources situation&lt;/font&gt;" style="text;strokeColor=none;align=center;fillColor=none;html=1;verticalAlign=middle;whiteSpace=wrap;rounded=0;" parent="1" vertex="1">
          <mxGeometry x="175" y="1345" width="360" height="30" as="geometry" />
        </mxCell>
        <mxCell id="CKn5apcOZ88T2fr3DwMD-44" value="&lt;font style=&quot;font-size: 16px;&quot;&gt;Human resource situation: branch / province&amp;nbsp;&lt;/font&gt;" style="text;strokeColor=none;align=center;fillColor=none;html=1;verticalAlign=middle;whiteSpace=wrap;rounded=0;" parent="1" vertex="1">
          <mxGeometry x="10" y="1620" width="350" height="30" as="geometry" />
        </mxCell>
        <mxCell id="CKn5apcOZ88T2fr3DwMD-45" value="&lt;font style=&quot;font-size: 16px;&quot;&gt;???&lt;/font&gt;" style="text;strokeColor=none;align=center;fillColor=none;html=1;verticalAlign=middle;whiteSpace=wrap;rounded=0;" parent="1" vertex="1">
          <mxGeometry x="510" y="1740" width="350" height="30" as="geometry" />
        </mxCell>
        <mxCell id="CKn5apcOZ88T2fr3DwMD-46" value="&lt;font style=&quot;font-size: 16px;&quot;&gt;reason for quitting job&lt;/font&gt;" style="text;strokeColor=none;align=center;fillColor=none;html=1;verticalAlign=middle;whiteSpace=wrap;rounded=0;" parent="1" vertex="1">
          <mxGeometry x="360" y="1570" width="350" height="30" as="geometry" />
        </mxCell>
        <mxCell id="CKn5apcOZ88T2fr3DwMD-47" value="&lt;span style=&quot;font-size: 16px;&quot;&gt;Age&lt;/span&gt;" style="text;strokeColor=none;align=center;fillColor=none;html=1;verticalAlign=middle;whiteSpace=wrap;rounded=0;" parent="1" vertex="1">
          <mxGeometry x="20" y="1570" width="350" height="30" as="geometry" />
        </mxCell>
        <mxCell id="CKn5apcOZ88T2fr3DwMD-48" value="&lt;span style=&quot;font-size: 16px;&quot;&gt;Human resource: deparment&lt;/span&gt;" style="text;strokeColor=none;align=center;fillColor=none;html=1;verticalAlign=middle;whiteSpace=wrap;rounded=0;" parent="1" vertex="1">
          <mxGeometry x="20" y="1820" width="350" height="30" as="geometry" />
        </mxCell>
        <mxCell id="CKn5apcOZ88T2fr3DwMD-49" value="&lt;span style=&quot;font-size: 16px;&quot;&gt;Human resource: rank / type situatuon&lt;/span&gt;" style="text;strokeColor=none;align=center;fillColor=none;html=1;verticalAlign=middle;whiteSpace=wrap;rounded=0;" parent="1" vertex="1">
          <mxGeometry x="30" y="1770" width="350" height="30" as="geometry" />
        </mxCell>
        <mxCell id="CKn5apcOZ88T2fr3DwMD-50" value="Time spent with the company" style="text;strokeColor=none;align=center;fillColor=none;html=1;verticalAlign=middle;whiteSpace=wrap;rounded=0;" parent="1" vertex="1">
          <mxGeometry x="30" y="1680" width="350" height="30" as="geometry" />
        </mxCell>
        <mxCell id="CKn5apcOZ88T2fr3DwMD-51" value="&lt;span style=&quot;font-size: 16px;&quot;&gt;salary&lt;/span&gt;" style="text;strokeColor=none;align=center;fillColor=none;html=1;verticalAlign=middle;whiteSpace=wrap;rounded=0;" parent="1" vertex="1">
          <mxGeometry x="20" y="1720" width="350" height="30" as="geometry" />
        </mxCell>
        <mxCell id="CKn5apcOZ88T2fr3DwMD-52" value="&lt;font style=&quot;font-size: 16px;&quot;&gt;&quot;in/out/turnover&quot; situation&lt;/font&gt;" style="text;strokeColor=none;align=center;fillColor=none;html=1;verticalAlign=middle;whiteSpace=wrap;rounded=0;fontStyle=1" parent="1" vertex="1">
          <mxGeometry x="410" y="1510" width="240" height="30" as="geometry" />
        </mxCell>
        <mxCell id="CKn5apcOZ88T2fr3DwMD-53" value="&lt;font style=&quot;font-size: 16px;&quot;&gt;Overall situation&lt;/font&gt;" style="text;strokeColor=none;align=center;fillColor=none;html=1;verticalAlign=middle;whiteSpace=wrap;rounded=0;fontStyle=1" parent="1" vertex="1">
          <mxGeometry x="110" y="1510" width="190" height="30" as="geometry" />
        </mxCell>
        <mxCell id="CKn5apcOZ88T2fr3DwMD-54" value="" style="endArrow=classic;html=1;rounded=0;exitX=0.281;exitY=0.988;exitDx=0;exitDy=0;exitPerimeter=0;entryX=0.5;entryY=0;entryDx=0;entryDy=0;" parent="1" source="CKn5apcOZ88T2fr3DwMD-43" target="CKn5apcOZ88T2fr3DwMD-53" edge="1">
          <mxGeometry width="50" height="50" relative="1" as="geometry">
            <mxPoint x="450" y="1490" as="sourcePoint" />
            <mxPoint x="500" y="1440" as="targetPoint" />
          </mxGeometry>
        </mxCell>
        <mxCell id="CKn5apcOZ88T2fr3DwMD-55" value="" style="endArrow=classic;html=1;rounded=0;exitX=0.712;exitY=0.979;exitDx=0;exitDy=0;exitPerimeter=0;entryX=0.5;entryY=0;entryDx=0;entryDy=0;" parent="1" source="CKn5apcOZ88T2fr3DwMD-43" target="CKn5apcOZ88T2fr3DwMD-52" edge="1">
          <mxGeometry width="50" height="50" relative="1" as="geometry">
            <mxPoint x="450" y="1490" as="sourcePoint" />
            <mxPoint x="500" y="1440" as="targetPoint" />
          </mxGeometry>
        </mxCell>
        <mxCell id="CKn5apcOZ88T2fr3DwMD-57" value="" style="shape=flexArrow;endArrow=classic;html=1;rounded=0;" parent="1" edge="1">
          <mxGeometry width="50" height="50" relative="1" as="geometry">
            <mxPoint x="465" y="1760" as="sourcePoint" />
            <mxPoint x="540" y="1760" as="targetPoint" />
          </mxGeometry>
        </mxCell>
        <mxCell id="CKn5apcOZ88T2fr3DwMD-58" value="&lt;font style=&quot;font-size: 16px;&quot;&gt;layoff/recruitment situation&lt;/font&gt;" style="text;strokeColor=none;align=center;fillColor=none;html=1;verticalAlign=middle;whiteSpace=wrap;rounded=0;" parent="1" vertex="1">
          <mxGeometry x="380" y="1620" width="350" height="30" as="geometry" />
        </mxCell>
      </root>
    </mxGraphModel>
  </diagram>
</mxfile>
